# xmcd
#
# Track frame offsets:
#	150
#	11655
#	26667
#	39770
#	57257
#	72585
#	85055
#	99222
#	112932
#	126895
#	140022
#	152482
#	165277
#	177550
#
# Disc length: 2537 seconds
# Revision: 4
# Processed by: cddbd v1.5.2PL0 Copyright (c) Steve Scherf et al.
# Submitted via: dBpowerAMP V12.0
#
DISCID=ab09e70e
DTITLE=Jimmy Rogers - Chicago Bound
DYEAR=1970
DGENRE=Blues
TTITLE0=You're the One [1955]
TTITLE1=Money, Marbles and Chalk [1951]
TTITLE2=Luedella [1950]
TTITLE3=Act Like You Love Me [1953]
TTITLE4=Back Door Friend [1952]
TTITLE5=Last Time [1952]
TTITLE6=I Used to Have a Woman [1951]
TTITLE7=Sloppy Drunk [1954]
TTITLE8=Blues Leave Me Alone [1954]
TTITLE9=Out on the Road [1952]
TTITLE10=Goin' Away Baby [1950]
TTITLE11=That's All Right [1950]
TTITLE12=Chicago Bound [1954]
TTITLE13=Walking by Myself [1956]
EXTD=
EXTT0=
EXTT1=
EXTT2=
EXTT3=
EXTT4=
EXTT5=
EXTT6=
EXTT7=
EXTT8=
EXTT9=
EXTT10=
EXTT11=
EXTT12=
EXTT13=
PLAYORDER=
